<svg width="20" height="22" viewBox="0 0 20 22" fill="none" xmlns="http://www.w3.org/2000/svg">
    <path d="M14.963 3.22c.521-.708 1.281-1.758 2.098-1.534.27.089.56.082.827-.018.267-.1.37-.24.647-.536A.42.42 0 0 1 18.836 1a.406.406 0 0 1 .3.132.461.461 0 0 1 .08.625c-.329.53-1.27 1.18-1.996.826-.533-.307-1.27.85-1.532 1.18l.658.4c.161.094.301.222.411.376a1.41 1.41 0 0 1 .009 1.607c-.193.318-.658 1.179-.862 1.497a8.79 8.79 0 0 1 1.87 4.823 8.876 8.876 0 0 1-1.144 5.063 8.135 8.135 0 0 1-4.117 3.727 8.182 8.182 0 0 1-6.27-.078c-2.004-.858-3.616-2.48-4.506-4.534a8.6 8.6 0 0 1-.736-3.61 8.587 8.587 0 0 1 .838-3.586c.857-1.967 2.396-3.526 4.31-4.364a7.658 7.658 0 0 1 5.161-.449.23.23 0 0 0 .275-.044.25.25 0 0 0 .054-.085c.159-.272.601-1.11.771-1.369.09-.154.208-.287.348-.392a1.234 1.234 0 0 1 1.456-.032c.227.13.454.306.749.507zm-3.96 17.529a7.45 7.45 0 0 0 3.809-2.215 7.936 7.936 0 0 0 1.984-4.04 8.108 8.108 0 0 0-.506-4.507 7.748 7.748 0 0 0-2.828-3.456 7.308 7.308 0 0 0-4.196-1.242 7.324 7.324 0 0 0-4.153 1.39A7.777 7.777 0 0 0 2.4 10.235a8.114 8.114 0 0 0-.358 4.522c.448 2.017 1.635 3.772 3.31 4.891a7.39 7.39 0 0 0 5.65 1.102zm4.3-13.837c.17-.271.6-1.097.748-1.357a.432.432 0 0 0 .074-.342.432.432 0 0 0-.198-.283l-2.2-1.474a.39.39 0 0 0-.3-.068.388.388 0 0 0-.257.174c-.181.26-.6 1.109-.77 1.404a8.885 8.885 0 0 1 2.903 1.946z" fill="#000" stroke="#000" stroke-width=".1" stroke-miterlimit="10"/>
    <path d="M13.482 17.818c-.84.754-1.92 1.293-3.114 1.553h-.224a.492.492 0 0 1-.342-.033.392.392 0 0 1-.128-.1.315.315 0 0 1-.066-.137.31.31 0 0 1 .001-.146.343.343 0 0 1 .069-.135.42.42 0 0 1 .125-.102.5.5 0 0 1 .163-.054c.465-.109.92-.245 1.362-.41a5.362 5.362 0 0 0 1.769-1.2c.481-.5.83-1.08 1.021-1.7.079-.242.224-.354.436-.354s.502.223.413.52c-.264.855-.774 1.643-1.485 2.298z" fill="#000" stroke="#000" stroke-width=".1" stroke-miterlimit="10"/>
</svg>
