<svg width="19" height="19" viewBox="0 0 19 19" fill="none" xmlns="http://www.w3.org/2000/svg">
    <path d="M16.541 5.622A8.093 8.093 0 0 1 5.396 16.608M3.571 15.131A8.092 8.092 0 0 1 15.023 3.714M17.922 1.022 1 17.978" stroke="#000" stroke-miterlimit="10" stroke-linecap="round"/>
    <path d="M7.173 11.232V7.768a.847.847 0 0 1 .435-.746.845.845 0 0 1 .863.014l1.845 1.115.768-.754L9.01 6.144a1.9 1.9 0 0 0-2.882 1.623v3.465a1.9 1.9 0 0 0 .197.85l.847-.835v-.015zM11.746 9.586a.836.836 0 0 1-.406.646l-.638.387-2.551 2.512c.305-.02.602-.114.863-.273l2.866-1.733a1.904 1.904 0 0 0 .75-2.407l-.884.868z" fill="#000"/>
</svg>
