<svg width="18" height="21" viewBox="0 0 18 21" fill="none" xmlns="http://www.w3.org/2000/svg">
    <path d="M8.505 6.004 7.131 8.498c-.308.55-.051 1.006.552 1.006h1.631c.617 0 .861.456.553 1.006l-1.362 2.494" stroke="#000" stroke-linecap="round" stroke-linejoin="round"/>
    <path d="M5.19 17.044v-1.16c-2.3-1.39-4.19-4.1-4.19-6.98 0-4.95 4.55-8.83 9.69-7.71 2.26.5 4.24 2 5.27 4.07 2.09 4.2-.11 8.66-3.34 10.61v1.16c0 .29.11.96-.96.96H6.15c-1.1.01-.96-.42-.96-.95z" stroke="#000" stroke-linecap="round" stroke-linejoin="round"/>
    <path stroke="#000" stroke-linecap="round" d="M5.026 20.322h7.728"/>
</svg>
