<svg width="18" height="18" viewBox="0 0 18 18" fill="none" xmlns="http://www.w3.org/2000/svg">
<path d="M1.828 12H2.647V8.454C3.133 7.968 3.484 7.707 3.979 7.707C4.627 7.707 4.906 8.094 4.906 9.012V12H5.734V8.904C5.734 7.662 5.266 6.996 4.24 6.996C3.565 6.996 3.061 7.365 2.602 7.824H2.575L2.494 7.113H1.828V12ZM8.79216 12.126C9.45816 12.126 9.97116 11.901 10.4032 11.622L10.1062 11.073C9.74616 11.316 9.35916 11.469 8.89116 11.469C7.95516 11.469 7.32516 10.794 7.26216 9.759H10.5562C10.5832 9.633 10.5922 9.462 10.5922 9.291C10.5922 7.887 9.89016 6.996 8.64816 6.996C7.52316 6.996 6.45216 7.977 6.45216 9.57C6.45216 11.172 7.48716 12.126 8.79216 12.126ZM7.25316 9.165C7.36116 8.202 7.97316 7.653 8.65716 7.653C9.43116 7.653 9.87216 8.184 9.87216 9.165H7.25316ZM12.1049 12H13.0589L13.7429 9.381C13.8779 8.913 13.9769 8.463 14.0759 7.959H14.1209C14.2379 8.463 14.3279 8.904 14.4539 9.372L15.1649 12H16.1639L17.4779 7.113H16.6949L15.9839 9.948C15.8669 10.416 15.7769 10.848 15.6779 11.307H15.6419C15.5249 10.848 15.4169 10.416 15.2999 9.948L14.5259 7.113H13.7249L12.9689 9.948C12.8429 10.407 12.7439 10.848 12.6359 11.307H12.5909C12.5009 10.848 12.4109 10.416 12.3119 9.948L11.5739 7.113H10.7369L12.1049 12Z" fill="#FF0000"/>
</svg>
