<svg width="19" height="21" viewBox="0 0 19 21" fill="none" xmlns="http://www.w3.org/2000/svg">
<mask id="mask0_4_640" style="mask-type:alpha" maskUnits="userSpaceOnUse" x="0" y="0" width="19" height="21">
<path d="M8.72972 13.507V8.44723L13.4362 10.9771L8.72972 13.507ZM15.573 8.89593C14.8482 8.59043 14.4434 8.41859 14.4434 8.41859L15.7895 7.69303C17.5215 6.77654 18.171 4.60943 17.2579 2.86237C16.3448 1.11531 14.2081 0.447037 12.4855 1.37307L4.49387 5.66912C3.27959 6.3183 2.54538 7.61666 2.61127 9.00094C2.67716 10.3566 3.48668 11.5499 4.70096 12.1036C4.7292 12.1132 5.83052 12.581 5.83052 12.581L4.49387 13.297C2.77129 14.223 2.11238 16.3901 3.02544 18.1372C3.9385 19.8843 6.07526 20.5525 7.79784 19.6265L15.7989 15.3304C17.0132 14.6813 17.738 13.3829 17.6721 11.9986C17.6062 10.643 16.7873 9.44009 15.573 8.89593ZM15.3565 14.4903L7.35543 18.7864C6.09408 19.4642 4.52211 18.9773 3.85379 17.698C3.18546 16.4188 3.66553 14.8245 4.92687 14.1466L6.84712 13.1156V11.9604L6.19763 11.6931L5.15278 11.254C4.22089 10.8626 3.59964 9.96516 3.55257 8.95321C3.50551 7.94125 4.04205 6.98657 4.92687 6.50923L12.9279 2.21319C14.1893 1.53537 15.7612 2.02225 16.4296 3.30152C17.0979 4.58079 16.6178 6.1751 15.3565 6.85292L13.4362 7.88397V9.03913L15.1306 9.74559C16.0625 10.137 16.6837 11.0344 16.7308 12.0464C16.7778 13.0583 16.2413 14.013 15.3565 14.4903Z" fill="#FF0000"/>
<path d="M18 1.96045L1 18.9948" stroke="#FF0000" stroke-miterlimit="10" stroke-linecap="round"/>
</mask>
<g mask="url(#mask0_4_640)">
<path d="M0.135986 -0.550781H21.2326L11.6889 8.99295L0.135986 20.5459V-0.550781Z" fill="#FF0000"/>
</g>
<mask id="mask1_4_640" style="mask-type:alpha" maskUnits="userSpaceOnUse" x="2" y="0" width="16" height="21">
<path d="M8.72948 13.507V8.44723L13.436 10.9771L8.72948 13.507ZM15.5727 8.89593C14.8479 8.59043 14.4432 8.41859 14.4432 8.41859L15.7892 7.69303C17.5212 6.77654 18.1707 4.60943 17.2577 2.86237C16.3446 1.11531 14.2078 0.447037 12.4853 1.37307L4.49363 5.66912C3.27935 6.3183 2.54513 7.61666 2.61103 9.00094C2.67692 10.3566 3.48644 11.5499 4.70071 12.1036C4.72895 12.1132 5.83027 12.581 5.83027 12.581L4.49363 13.297C2.77105 14.223 2.11214 16.3901 3.0252 18.1372C3.93826 19.8843 6.07501 20.5525 7.79759 19.6265L15.7986 15.3304C17.0129 14.6813 17.7377 13.3829 17.6718 11.9986C17.6059 10.643 16.787 9.44009 15.5727 8.89593ZM15.3562 14.4903L7.35518 18.7864C6.09384 19.4642 4.52187 18.9773 3.85354 17.698C3.18522 16.4188 3.66528 14.8245 4.92663 14.1466L6.84688 13.1156V11.9604L6.19738 11.6931L5.15254 11.254C4.22065 10.8626 3.59939 9.96516 3.55233 8.95321C3.50526 7.94125 4.0418 6.98657 4.92663 6.50923L12.9277 2.21319C14.189 1.53537 15.761 2.02225 16.4293 3.30152C17.0976 4.58079 16.6176 6.1751 15.3562 6.85292L13.436 7.88397V9.03913L15.1303 9.74559C16.0622 10.137 16.6835 11.0344 16.7305 12.0464C16.7776 13.0583 16.2411 14.013 15.3562 14.4903Z" fill="#FF0000"/>
</mask>
<g mask="url(#mask1_4_640)">
<path d="M22.1958 21.5508L1.09914 21.5508L10.6429 12.0071L22.1958 0.454118L22.1958 21.5508Z" fill="#FF0000"/>
</g>
</svg>
