<svg width="84" height="84" viewBox="0 0 84 84" fill="none" xmlns="http://www.w3.org/2000/svg">
    <path d="M81.88 67.32c0 1.44-.32 2.92-1 4.36-.68 1.44-1.56 2.8-2.72 4.08-1.96 2.16-4.12 3.72-6.56 4.72-2.4 1-5 1.52-7.8 1.52-4.08 0-8.44-.96-13.04-2.92s-9.2-4.6-13.76-7.92a115 115 0 0 1-13.12-11.2c-4.12-4.16-7.84-8.52-11.16-13.08-3.28-4.56-5.92-9.12-7.84-13.64C2.96 28.68 2 24.32 2 20.16c0-2.72.48-5.32 1.44-7.72.96-2.44 2.48-4.68 4.6-6.68C10.6 3.24 13.4 2 16.36 2c1.12 0 2.24.24 3.24.72a6.52 6.52 0 0 1 2.68 2.24l9.28 13.08c.72 1 1.24 1.92 1.6 2.8.36.84.56 1.68.56 2.44 0 .96-.28 1.92-.84 2.84-.52.92-1.28 1.88-2.24 2.84l-3.04 3.16c-.44.44-.64.96-.64 1.6 0 .32.04.6.12.92.12.32.24.56.32.8.72 1.32 1.96 3.04 3.72 5.12 1.8 2.08 3.72 4.2 5.8 6.32 2.16 2.12 4.24 4.08 6.36 5.88 2.08 1.76 3.8 2.96 5.16 3.68.2.08.44.2.72.32.32.12.64.16 1 .16.68 0 1.2-.24 1.64-.68l3.04-3c1-1 1.96-1.76 2.88-2.24.92-.56 1.84-.84 2.84-.84.76 0 1.56.16 2.44.52.88.36 1.8.88 2.8 1.56l13.24 9.4c1.04.72 1.76 1.56 2.2 2.56.4 1 .64 2 .64 3.12z" stroke="#C7C7C7" stroke-opacity=".5" stroke-width="4" stroke-miterlimit="10"/>
    <path d="M68 30c0-2.4-1.88-6.08-4.68-9.08C60.76 18.16 57.36 16 54 16M82 30C82 14.52 69.48 2 54 2" stroke="#C7C7C7" stroke-opacity=".5" stroke-width="4" stroke-linecap="round" stroke-linejoin="round"/>
</svg>
