<svg width="81" height="84" viewBox="0 0 81 84" fill="none" xmlns="http://www.w3.org/2000/svg">
    <path d="M48.856 39.32H47.76c-8.781 0-13.172-2.196-13.172-13.172V15.172C34.587 6.39 38.977 2 47.76 2H65.32c8.78 0 13.171 4.39 13.171 13.171v10.977c0 8.78-4.39 13.171-13.171 13.171h-1.098c-.68 0-1.34.33-1.756.878l-3.293 4.39c-1.449 1.933-3.82 1.933-5.269 0l-3.293-4.39c-.35-.483-1.163-.878-1.756-.878z" fill="#fff" stroke="#C7C7C7" stroke-opacity=".5" stroke-width="4" stroke-miterlimit="10" stroke-linecap="round" stroke-linejoin="round"/>
    <path d="M45.563 15.17h21.953M45.563 26.148h13.172" stroke="#C7C7C7" stroke-opacity=".5" stroke-width="4" stroke-linecap="round" stroke-linejoin="round"/>
    <path d="M26.903 53.008c8.006 0 14.495-6.49 14.495-14.495 0-8.006-6.49-14.495-14.495-14.495-8.005 0-14.495 6.49-14.495 14.495 0 8.006 6.49 14.495 14.495 14.495z" fill="#fff" stroke="#C7C7C7" stroke-opacity=".5" stroke-width="4" stroke-linecap="round" stroke-linejoin="round"/>
    <path d="M51.806 82c0-11.22-11.161-20.294-24.903-20.294C13.161 61.706 2 70.78 2 82" stroke="#C7C7C7" stroke-opacity=".5" stroke-width="4" stroke-linecap="round" stroke-linejoin="round"/>
</svg>
