<svg width="21" height="19" viewBox="0 0 21 19" fill="none" xmlns="http://www.w3.org/2000/svg">
<mask id="mask0_4_685" style="mask-type:alpha" maskUnits="userSpaceOnUse" x="0" y="0" width="19" height="19">
<path d="M0 0.5H19L1 18.5H0V0.5Z" fill="#D9D9D9"/>
</mask>
<g mask="url(#mask0_4_685)">
<path d="M17.7922 1L0.870117 17.9563" stroke="#FF0000" stroke-miterlimit="10" stroke-linecap="round"/>
<path d="M7.35012 5.53L6.64012 4.83C5.55012 5.91 4.87012 7.42 4.87012 9.08C4.87012 10.74 5.55012 12.25 6.64012 13.33L7.35012 12.62C6.44012 11.72 5.87012 10.47 5.87012 9.08C5.87012 7.69 6.44012 6.44 7.35012 5.53ZM15.1001 4.83L14.3901 5.54C15.3001 6.44 15.8701 7.69 15.8701 9.08C15.8701 10.47 15.3001 11.72 14.3901 12.63L15.1001 13.34C16.1901 12.25 16.8701 10.74 16.8701 9.08C16.8701 7.42 16.1901 5.91 15.1001 4.83ZM4.52012 2.71L3.82012 2C2.00012 3.81 0.870117 6.32 0.870117 9.08C0.870117 11.84 2.00012 14.35 3.82012 16.16L4.53012 15.45C2.89012 13.82 1.87012 11.57 1.87012 9.08C1.87012 6.59 2.89012 4.34 4.52012 2.71ZM17.9201 2L17.2101 2.71C18.8501 4.34 19.8701 6.59 19.8701 9.08C19.8701 11.57 18.8501 13.82 17.2201 15.45L17.9301 16.16C19.7401 14.35 20.8701 11.84 20.8701 9.08C20.8701 6.32 19.7401 3.81 17.9201 2Z" fill="#FF0000"/>
<circle cx="10.8701" cy="9" r="2" fill="#FF0000"/>
</g>
<mask id="mask1_4_685" style="mask-type:alpha" maskUnits="userSpaceOnUse" x="5" y="1" width="16" height="16">
<path d="M14.3701 7L20.3701 1H21.0001V16.5L5.87012 15.5L14.3701 7Z" fill="#D9D9D9"/>
</mask>
<g mask="url(#mask1_4_685)">
<path d="M7.35012 5.53L6.64012 4.83C5.55012 5.91 4.87012 7.42 4.87012 9.08C4.87012 10.74 5.55012 12.25 6.64012 13.33L7.35012 12.62C6.44012 11.72 5.87012 10.47 5.87012 9.08C5.87012 7.69 6.44012 6.44 7.35012 5.53ZM15.1001 4.83L14.3901 5.54C15.3001 6.44 15.8701 7.69 15.8701 9.08C15.8701 10.47 15.3001 11.72 14.3901 12.63L15.1001 13.34C16.1901 12.25 16.8701 10.74 16.8701 9.08C16.8701 7.42 16.1901 5.91 15.1001 4.83ZM4.52012 2.71L3.82012 2C2.00012 3.81 0.870117 6.32 0.870117 9.08C0.870117 11.84 2.00012 14.35 3.82012 16.16L4.53012 15.45C2.89012 13.82 1.87012 11.57 1.87012 9.08C1.87012 6.59 2.89012 4.34 4.52012 2.71ZM17.9201 2L17.2101 2.71C18.8501 4.34 19.8701 6.59 19.8701 9.08C19.8701 11.57 18.8501 13.82 17.2201 15.45L17.9301 16.16C19.7401 14.35 20.8701 11.84 20.8701 9.08C20.8701 6.32 19.7401 3.81 17.9201 2Z" fill="#FF0000"/>
<circle cx="10.8701" cy="9" r="2" fill="#FF0000"/>
</g>
</svg>
