<svg width="194" height="62" viewBox="0 0 194 62" fill="none" xmlns="http://www.w3.org/2000/svg">
<path d="M26.885 19.2349C29.2128 19.2349 31.9394 19.6408 31.9394 23.1282V55.931H30.6909C28.3631 55.931 25.6929 55.4723 25.6929 51.9809V19.2349H26.885ZM37.1065 41.0885H41.8105L48.9672 55.9148H48.7941C43.0591 55.9148 42.2052 56.3208 41.2991 54.4249L35.7332 42.8627L31.9273 47.9008V46.9833L44.0095 30.7808H44.6901L37.1065 41.0885Z" fill="#141414"/>
<path d="M67.9886 38.275C67.9886 34.0975 65.83 32.3803 63.6149 32.3803C61.8549 32.3803 60.2077 33.3546 58.335 34.9541L57.5939 35.5834V55.9675H56.3454C54.0176 55.9675 51.3474 55.5087 51.3474 52.0173V31.4059H52.5556C54.8271 31.4059 57.3885 31.8119 57.61 34.8973L58.2383 34.3249C60.7917 32.2057 63.4739 30.8335 66.8127 30.8335C71.5247 30.8335 74.2513 33.2369 74.2513 38.2182V55.9675H73.0028C70.6749 55.9675 68.0047 55.5087 68.0047 52.0173L67.9886 38.275Z" fill="#141414"/>
<path d="M77.6544 43.1428C77.6544 36.156 81.855 30.2612 90.2038 30.2612C98.5526 30.2612 102.757 36.156 102.757 43.1428C102.757 50.1297 98.609 55.9676 90.2038 55.9676C81.7986 55.9676 77.6544 50.1256 77.6544 43.1428ZM84.4688 43.086C84.4688 49.7846 86.4019 55.3952 90.2038 55.3952C94.0661 55.3952 95.9388 49.7846 95.9388 43.086C95.9388 36.3874 94.0097 30.8337 90.2038 30.8337C86.3979 30.8337 84.4688 36.3306 84.4688 43.086V43.086Z" fill="#141414"/>
<path d="M127.457 35.3562C127.457 38.2184 122.177 39.1927 117.747 41.0805C114.453 42.4567 111.614 44.2877 111.67 47.7791C111.67 53.276 118.09 54.364 121.738 51.8389C124.066 50.2961 125.999 47.0321 127.079 43.423H127.417V52.0134C127.417 53.958 128.158 54.701 129.632 54.3031C128.951 55.2166 127.135 55.9636 125.432 55.9636C122.987 55.9636 121.738 54.3031 121.738 51.8389C119.749 53.4425 116.003 55.9636 111.742 55.9636C107.993 55.9636 105.154 53.2151 105.154 49.6628C105.154 43.3093 113.104 42.8505 118.041 40.2767C120.031 39.2455 121.791 37.3009 121.791 34.8934C121.791 32.7174 120.144 30.8337 116.958 30.8337C112.87 30.8337 110.542 34.0815 108.782 37.5891V33.0097C111.279 31.4061 114.018 30.2612 117.699 30.2612C122.576 30.2612 127.457 32.0922 127.457 35.3562Z" fill="#141414"/>
<path d="M148.355 38.2751C148.355 34.0976 146.253 32.3804 143.982 32.3804C142.222 32.3804 140.575 33.3547 138.702 34.9543L137.961 35.5835V55.9676H136.712C134.384 55.9676 131.714 55.5616 131.714 52.0174V26.0674C131.714 21.9427 134.328 17.8789 138.758 17.8789C141.883 17.8789 144.799 20.2254 144.799 25.2636C144.795 27.7484 143.862 30.1402 142.185 31.9622C143.743 31.2015 145.453 30.81 147.184 30.8174C151.896 30.8174 154.622 33.2207 154.622 38.2021V55.9513H153.414C151.086 55.9513 148.36 55.5454 148.36 52.0012L148.355 38.2751ZM137.961 34.8406L138.589 34.325C139.269 33.7589 139.989 33.2433 140.744 32.7823C142.508 31.406 144.211 28.142 144.211 25.3367C144.211 22.1904 142.508 20.7573 140.86 20.7573C139.382 20.7573 137.961 22.1335 137.961 24.7074V34.8406Z" fill="#141414"/>
<path d="M161.187 55.9632C162.633 55.9632 163.805 54.7818 163.805 53.3244C163.805 51.867 162.633 50.6855 161.187 50.6855C159.741 50.6855 158.569 51.867 158.569 53.3244C158.569 54.7818 159.741 55.9632 161.187 55.9632Z" fill="#FF0000"/>
<path d="M22.1456 6.00001C18.192 5.99612 14.3105 7.06616 10.9091 9.09761C10.6343 8.74571 10.2927 8.45249 9.90428 8.23506C9.51586 8.01763 9.08837 7.88034 8.64675 7.8312C8.20514 7.78205 7.75824 7.82203 7.33212 7.94881C6.90599 8.07559 6.50917 8.28663 6.1648 8.56962C5.82043 8.85261 5.53541 9.20188 5.32636 9.59707C5.1173 9.99226 4.9884 10.4255 4.94716 10.8714C4.90593 11.3173 4.95319 11.7671 5.0862 12.1944C5.2192 12.6217 5.43529 13.0181 5.72185 13.3604C3.00314 16.3907 1.16141 20.115 0.397236 24.1276C-0.366934 28.1401 -0.0242548 32.2871 1.38796 36.1169C2.80018 39.9467 5.22778 43.3125 8.4064 45.8477C11.585 48.3829 15.3928 49.9904 19.415 50.495V49.9591C15.4981 49.4569 11.7925 47.8826 8.70056 45.4071C5.60867 42.9316 3.24868 39.6495 1.87684 35.9172C0.504992 32.185 0.173743 28.1452 0.919049 24.2365C1.66435 20.3278 3.45774 16.6997 6.10445 13.746C6.71312 14.3002 7.50338 14.6081 8.32353 14.6108C8.91186 14.611 9.48981 14.4544 9.99882 14.157C10.5078 13.8596 10.9299 13.432 11.2222 12.9173C11.5145 12.4026 11.6666 11.8192 11.6633 11.2261C11.66 10.6331 11.5012 10.0514 11.2031 9.54012C14.2033 7.75989 17.5858 6.73693 21.0627 6.55834C24.5395 6.37975 28.0077 7.05084 31.1718 8.51444C34.3359 9.97804 37.1023 12.1908 39.2353 14.9643C41.3683 17.7378 42.8048 20.9898 43.4224 24.4435H43.962C43.0479 19.2786 40.3622 14.6019 36.3743 11.2306C32.3865 7.85932 27.3502 6.00793 22.1456 6.00001ZM8.30743 14.0789C7.74985 14.0789 7.2048 13.9123 6.74118 13.6C6.27757 13.2877 5.91622 12.8439 5.70284 12.3246C5.48947 11.8053 5.43365 11.2339 5.54243 10.6827C5.6512 10.1314 5.91969 9.62506 6.31396 9.22762C6.70823 8.83019 7.21058 8.55953 7.75745 8.44987C8.30432 8.34022 8.87114 8.3965 9.38628 8.61159C9.90142 8.82668 10.3417 9.19093 10.6515 9.65826C10.9613 10.1256 11.1266 10.675 11.1266 11.2371C11.1213 11.9892 10.8226 12.7089 10.2951 13.2407C9.76752 13.7725 9.0535 14.0736 8.30743 14.0789V14.0789Z" fill="#141414"/>
<path d="M178.174 37.7476H182.423L188.243 56.0165H184.453L183.172 51.3234H177.305L176.036 56.0043H172.367L178.174 37.7476ZM178.098 48.4897H182.399L181.864 46.4923C181.3 44.5964 180.812 42.5015 180.301 40.5326H180.176C179.713 42.5259 179.173 44.5923 178.638 46.4923L178.098 48.4897Z" fill="#999999"/>
<path d="M190.369 37.7476H193.994V56.0165H190.369V37.7476Z" fill="#999999"/>
</svg>
