<?xml version="1.0" encoding="UTF-8"?>
<svg width="407px" height="124px" viewBox="0 0 407 124" version="1.1" xmlns="http://www.w3.org/2000/svg" xmlns:xlink="http://www.w3.org/1999/xlink">
    <title>logo</title>
    <g id="Page-1" stroke="none" stroke-width="1" fill="none" fill-rule="evenodd">
        <g id="logo" fill-rule="nonzero">
            <path d="M66.7583279,32.6000519 C72.5383279,32.6000519 79.3083279,33.6000519 79.3083279,42.1800519 L79.3083279,122.990052 L76.2083279,122.990052 C70.4283279,122.990052 63.7983279,121.860052 63.7983279,113.260052 L63.7983279,32.6000519 L66.7583279,32.6000519 Z M92.1383279,86.4700519 L103.848328,86.4700519 L121.618328,122.990052 L121.188328,122.990052 C106.948328,122.990052 104.828328,123.990052 102.578328,119.320052 L88.7583279,90.8400519 L79.3083279,103.250052 L79.3083279,100.990052 L109.308328,61.0800519 L110.998328,61.0800519 L92.1383279,86.4700519 Z" id="Shape" fill="#000000"></path>
            <path d="M168.848328,79.5400519 C168.848328,69.2500519 163.488328,65.0200519 157.988328,65.0200519 C153.618328,65.0200519 149.528328,67.4100519 144.878328,71.3600519 L143.038328,72.9100519 L143.038328,123.120052 L139.938328,123.120052 C134.158328,123.120052 127.528328,121.990052 127.528328,113.390052 L127.528328,62.5400519 L130.528328,62.5400519 C136.168328,62.5400519 142.528328,63.5400519 143.078328,71.1400519 L144.638328,69.7300519 C150.978328,64.5100519 157.638328,61.1300519 165.928328,61.1300519 C177.628328,61.1300519 184.398328,67.0500519 184.398328,79.3200519 L184.398328,123.040052 L181.298328,123.040052 C175.518328,123.040052 168.888328,121.910052 168.888328,113.310052 L168.848328,79.5400519 Z" id="Path" fill="#000000"></path>
            <path d="M192.818328,91.5400519 C192.818328,74.3300519 203.248328,59.8100519 223.978328,59.8100519 C244.708328,59.8100519 255.148328,74.3300519 255.148328,91.5400519 C255.148328,108.750052 244.848328,123.130052 223.978328,123.130052 C203.108328,123.130052 192.818328,108.690052 192.818328,91.5400519 Z M209.738328,91.4000519 C209.738328,107.900052 214.528328,121.720052 223.978328,121.720052 C233.428328,121.720052 238.218328,107.900052 238.218328,91.4000519 C238.218328,74.9000519 233.428328,61.2200519 223.978328,61.2200519 C214.528328,61.2200519 209.738328,74.7100519 209.738328,91.3500519 L209.738328,91.4000519 Z" id="Shape" fill="#000000"></path>
            <path d="M316.478328,72.3100519 C316.478328,79.3100519 303.368328,81.7600519 292.368328,86.4100519 C284.188328,89.8000519 277.138328,94.3100519 277.278328,102.910052 C277.278328,116.450052 293.218328,119.130052 302.278328,112.910052 C308.058328,109.100052 312.858328,101.070052 315.538328,92.1800519 L316.378328,92.1800519 L316.378328,113.340052 C316.378328,118.130052 318.218328,119.960052 321.878328,118.980052 C320.188328,121.230052 315.678328,123.070052 311.448328,123.070052 C305.378328,123.070052 302.278328,118.980052 302.278328,112.910052 C297.338328,116.910052 288.038328,123.070052 277.458328,123.070052 C268.148328,123.070052 261.098328,116.300052 261.098328,107.550052 C261.098328,91.9000519 280.838328,90.7700519 293.098328,84.4300519 C298.038328,81.8900519 302.408328,77.0900519 302.408328,71.1700519 C302.408328,65.8100519 298.318328,61.1700519 290.408328,61.1700519 C280.258328,61.1700519 274.478328,69.1700519 270.108328,77.8100519 L270.108328,66.5400519 C276.308328,62.5900519 283.108328,59.7700353 292.248328,59.7700353 C304.358328,59.7600519 316.478328,64.2700519 316.478328,72.3100519 Z" id="Path" fill="#000000"></path>
            <path d="M368.368328,79.5400519 C368.368328,69.2500519 363.148328,65.0200519 357.508328,65.0200519 C353.138328,65.0200519 349.048328,67.4100519 344.398328,71.3600519 L342.558328,72.9100519 L342.558328,123.120052 L339.458328,123.120052 C333.678328,123.120052 327.048328,122.120052 327.048328,113.390052 L327.048328,49.4600519 C327.048328,39.3100519 333.538328,29.3000519 344.538328,29.3000519 C352.298328,29.3000519 359.488328,35.0800519 359.488328,47.4900519 C359.477406,53.6105905 357.160054,59.5021626 352.998328,63.9900519 C356.86596,62.1163849 361.110785,61.1518073 365.408328,61.1700519 C377.108328,61.1700519 383.878328,67.0900519 383.878328,79.3600519 L383.878328,123.080052 L380.878328,123.080052 C375.098328,123.080052 368.328328,122.080052 368.328328,113.350052 L368.368328,79.5400519 Z M342.558328,71.0800519 L344.118328,69.8100519 C345.809729,68.4156689 347.597512,67.1425006 349.468328,66.0000519 C353.848328,62.5400519 358.078328,54.5400519 358.078328,47.6300519 C358.078328,39.8700519 353.848328,36.3500519 349.758328,36.3500519 C346.088328,36.3500519 342.558328,39.7300519 342.558328,46.0800519 L342.558328,71.0800519 Z" id="Shape" fill="#000000"></path>
            <path d="M400.238328,110.100052 C403.828179,110.100052 406.738328,113.010201 406.738328,116.600052 C406.738328,120.189903 403.828179,123.100052 400.238328,123.100052 C396.648477,123.100052 393.738328,120.189903 393.738328,116.600052 C393.738328,113.010201 396.648477,110.100052 400.238328,110.100052 L400.238328,110.100052 Z" id="Path" fill="#FF0000"></path>
            <path d="M54.9883279,2.58574005e-05 C45.1717143,-0.00952369937 35.5338854,2.62619798 27.0883279,7.63005186 C25.2309919,5.27084947 22.2454426,4.09706328 19.2787029,4.55965202 C16.3119632,5.02224075 13.8254978,7.04925055 12.7745858,9.86192134 C11.7236739,12.6745921 12.2717806,15.8354239 14.2083279,18.1300519 C0.448113634,33.3455717 -3.7002968,54.9546713 3.44736511,74.1839841 C10.595027,93.4132969 27.8506247,107.066386 48.2083279,109.600052 L48.2083279,108.270052 C28.3934,105.737082 11.6266343,92.4048796 4.69478186,73.669973 C-2.23707056,54.9350665 1.8140395,33.9003197 15.2083279,19.0800519 C16.7093643,20.4358446 18.6557014,21.1937418 20.6783279,21.2100519 C23.663094,21.2284578 26.4278891,19.6427903 27.9192333,17.0572421 C29.4105776,14.4716939 29.3987769,11.284486 27.8883279,8.71005186 C43.0152583,-0.180655919 61.5333496,-1.11414175 77.477675,6.21028273 C93.4220004,13.5347072 104.778215,28.1917021 107.888328,45.4600519 L109.218328,45.4600519 C104.546258,19.1674501 81.6928042,0.00982522556 54.9883279,2.58574005e-05 Z M20.6783279,19.8900519 C16.8123347,19.8900519 13.6783279,16.7560451 13.6783279,12.8900519 C13.6783279,9.02405861 16.8123347,5.89005186 20.6783279,5.89005186 C24.5443212,5.89005186 27.6783279,9.02405861 27.6783279,12.8900519 C27.6783279,16.7560451 24.5443212,19.8900519 20.6783279,19.8900519 Z" id="Shape" fill="#000000"></path>
        </g>
    </g>
</svg>